<?xml version="1.0" standalone="no"?>
<!DOCTYPE svg PUBLIC "-//W3C//DTD SVG 20010904//EN"
 "http://www.w3.org/TR/2001/REC-SVG-20010904/DTD/svg10.dtd">
<svg version="1.0" xmlns="http://www.w3.org/2000/svg"
 width="500.000000pt" height="500.000000pt" viewBox="0 0 500.000000 500.000000"
 preserveAspectRatio="xMidYMid meet">
<metadata>
Created by potrace 1.11, written by Peter Selinger 2001-2013
</metadata>
<g transform="translate(0.000000,500.000000) scale(0.100000,-0.100000)"
fill="#000000" stroke="none">
<path d="M2788 4645 c-2 -1 -41 -5 -88 -8 -47 -3 -105 -10 -130 -16 -25 -5
-56 -12 -70 -15 -102 -21 -301 -82 -455 -141 -143 -54 -325 -154 -553 -302
-157 -101 -285 -203 -494 -393 l-28 -26 52 -74 c28 -41 73 -104 99 -140 27
-36 58 -78 69 -95 56 -79 203 -283 219 -303 10 -13 75 -81 144 -151 l126 -128
44 46 c40 43 79 79 153 141 104 88 309 207 394 230 77 21 82 21 189 24 87 2
112 -1 159 -20 67 -28 76 -36 67 -63 -21 -66 -170 -166 -353 -235 -148 -57
-213 -71 -372 -82 -47 -4 -87 -9 -90 -11 -3 -2 -5 -19 -6 -36 -3 -85 -2 -83
-45 -102 -37 -17 -93 -74 -134 -138 -14 -22 -15 -30 -5 -42 20 -24 35 -18 61
22 22 34 81 83 100 83 8 0 5 -49 -6 -116 -5 -26 -9 -31 -33 -29 -37 2 -136
-21 -175 -42 -85 -43 -143 -116 -171 -212 -27 -94 -17 -174 29 -223 14 -15 25
-35 25 -45 1 -46 84 -142 164 -188 14 -8 16 -16 9 -43 l-8 -32 -52 25 c-53 27
-113 85 -113 109 0 13 -29 31 -37 22 -2 -2 6 -25 18 -51 18 -38 36 -57 90 -91
37 -24 72 -44 79 -44 7 0 7 -7 -1 -23 -7 -12 -11 -23 -10 -25 5 -4 -39 -176
-48 -191 -12 -19 -161 -18 -238 2 -131 34 -195 81 -258 188 -82 140 -101 354
-35 389 10 5 44 12 75 15 70 6 85 17 85 62 0 48 -38 84 -82 79 -56 -7 -81 -21
-143 -80 -106 -101 -139 -109 -232 -60 -106 57 -151 91 -244 186 -95 97 -119
106 -144 58 -19 -36 -19 -56 0 -110 30 -85 150 -190 217 -190 10 0 18 -4 18
-9 0 -14 -49 -22 -100 -16 -101 11 -146 17 -170 20 -41 7 -54 -8 -47 -55 7
-55 39 -87 105 -106 60 -18 127 -14 185 11 21 8 37 11 37 7 0 -16 -34 -39 -85
-58 -57 -21 -115 -68 -115 -93 0 -91 177 -26 317 116 78 79 112 98 128 72 4
-6 14 -40 22 -77 19 -90 19 -91 36 -137 63 -171 117 -228 267 -281 63 -22 118
-28 252 -29 65 0 118 -3 118 -7 0 -3 -18 -64 -40 -134 -22 -71 -40 -133 -40
-140 0 -6 35 -45 78 -86 64 -63 96 -92 180 -163 1 -1 -23 -22 -54 -45 -162
-126 -174 -301 -29 -418 126 -101 308 -161 573 -187 31 -4 71 -8 87 -10 45 -6
269 -7 297 -1 12 3 46 7 73 10 137 15 314 80 412 152 56 40 132 123 155 168
29 57 32 168 6 221 -25 49 -83 103 -160 147 -55 31 -69 52 -50 73 5 6 29 60
55 120 25 61 64 153 87 207 l40 96 -50 95 c-27 52 -50 97 -50 101 0 3 15 6 33
6 143 0 348 138 396 265 29 78 34 106 35 226 1 114 10 139 51 139 12 0 30 -9
41 -21 26 -29 147 -107 212 -137 42 -19 65 -23 104 -20 121 12 92 93 -44 118
-53 10 -98 28 -98 40 0 3 38 6 84 7 72 0 90 4 129 26 58 34 87 71 87 112 0 69
-59 84 -146 38 -61 -32 -164 -53 -164 -34 0 6 4 11 10 11 19 0 116 109 143
161 20 40 27 69 27 111 0 65 -16 88 -60 88 -25 0 -36 -12 -95 -106 -89 -139
-168 -220 -255 -261 -61 -28 -96 -23 -167 26 -100 68 -152 82 -215 56 -21 -8
-31 -51 -20 -90 l9 -30 80 3 c95 4 105 -2 129 -85 19 -67 15 -146 -17 -279
-26 -110 -45 -142 -121 -201 -69 -52 -119 -79 -175 -91 l-39 -9 -66 121 c-61
111 -66 123 -52 141 37 51 54 81 54 98 0 27 -14 20 -34 -18 -10 -19 -27 -42
-37 -51 -16 -14 -18 -14 -28 4 -8 15 -6 24 7 38 26 28 45 106 39 161 -7 65
-62 193 -103 242 l-34 40 55 11 c122 25 416 135 570 212 115 58 217 117 235
138 3 3 23 18 45 35 50 37 172 157 212 210 62 82 102 169 119 260 2 11 8 43
13 70 14 66 5 296 -12 365 -38 143 -120 317 -203 427 -13 17 -24 34 -24 37 0
8 -46 60 -100 113 -94 93 -305 229 -429 278 -34 13 -61 21 -61 19 0 -3 -8 0
-18 5 -10 5 -38 12 -62 16 -25 4 -47 8 -50 10 -12 7 -334 26 -342 20z"/>
</g>
</svg>
